HIERARCHY
ROOT Root
{
  OFFSET 5.39825 11.8871 -1.18907
  CHANNELS 6 Xposition Yposition Zposition Zrotation Xrotation Yrotation
  JOINT Spine
  {
    OFFSET 5.3114 0 0
    CHANNELS 3 Zrotation Xrotation Yrotation
    JOINT Spine1
    {
      OFFSET 2.79004 0 0
      CHANNELS 3 Zrotation Xrotation Yrotation
      JOINT Neck
      {
        OFFSET 1.43377 0 0
        CHANNELS 3 Zrotation Xrotation Yrotation
        JOINT Head
        {
          OFFSET 1.86043 0 0
          CHANNELS 3 Zrotation Xrotation Yrotation
          End Site
          {
            OFFSET 0 0 0
          }
        }
      }
      JOINT LeftArm
      {
        OFFSET 0.0387506 0 2.55754
        CHANNELS 3 Zrotation Xrotation Yrotation
        JOINT LeftForeArm
        {
          OFFSET 4.24845 0 0
          CHANNELS 3 Zrotation Xrotation Yrotation
          JOINT LeftHand
          {
            OFFSET 4.01008 0 0
            CHANNELS 3 Zrotation Xrotation Yrotation
            End Site
            {
              OFFSET 0 0 0
            }
          }
        }
      }
      JOINT RightArm
      {
        OFFSET 0.0387506 0 -2.55754
        CHANNELS 3 Zrotation Xrotation Yrotation
        JOINT RightForeArm
        {
          OFFSET -4.24845 0 0
          CHANNELS 3 Zrotation Xrotation Yrotation
          JOINT RightHand
          {
            OFFSET -4.01009 0 0
            CHANNELS 3 Zrotation Xrotation Yrotation
            End Site
            {
              OFFSET 0 0 0
            }
          }
        }
      }
    }
  }
  JOINT LeftUpLeg
  {
    OFFSET -1.23318 0 2.05692
    CHANNELS 3 Zrotation Xrotation Yrotation
    JOINT LeftLeg
    {
      OFFSET 5.46397 0 0
      CHANNELS 3 Zrotation Xrotation Yrotation
      JOINT LeftFoot
      {
        OFFSET 4.68898 0 0
        CHANNELS 3 Zrotation Xrotation Yrotation
        End Site
        {
          OFFSET 0 0 0
        }
      }
    }
  }
  JOINT RightUpLeg
  {
    OFFSET -1.24454 0 -2.05007
    CHANNELS 3 Zrotation Xrotation Yrotation
    JOINT RightLeg
    {
      OFFSET -5.46397 0 0
      CHANNELS 3 Zrotation Xrotation Yrotation
      JOINT RightFoot
      {
        OFFSET -4.68901 0 0
        CHANNELS 3 Zrotation Xrotation Yrotation
        End Site
        {
          OFFSET 0 0 0
        }
      }
    }
  }
}
MOTION
Frames:	15
Frame Time:	0.00833333
23.3058 11.9462 -3.31115 93.9465 0.515593 -0.132728 -8.14995 0.93989 1.87506 6.55722 0.405253 2.2663 -14.7331 -1.44547 -9.12315 35.718 -3.37129 6.53816 7.26723 -62.1814 -89.752 57.4235 11.6373 31.0774 -3.72253 -36.5785 173.224 169.563 -65.0104 -100.84 58.2883 12.055 31.4452 -0.688691 -7.82854 174.411 -14.5757 -7.53409 -174.51 -31.6811 -1.03095 -1.26061 28.7679 -13.4161 -176.921 161.84 -6.67862 -179.753 -32.1505 -0.796395 -1.31216 8.92918 10.0904 175.004 
23.3066 11.946 -3.31736 93.9266 0.600249 -0.132924 -8.11305 0.938818 1.87638 6.59689 0.405029 2.25555 -15.0314 -1.43759 -9.12242 35.7845 -3.36324 6.58078 6.61092 -63.0081 -91.9221 57.0862 11.4761 30.9331 -3.691 -36.346 173.243 168.523 -65.4215 -103.729 58.149 11.9875 31.3862 -0.646749 -7.35758 174.417 -14.5575 -7.55399 -174.475 -31.6412 -1.02763 -1.25939 28.6593 -13.4295 -176.944 161.801 -6.62766 -179.767 -32.2546 -0.791078 -1.31988 8.89903 9.83499 175.051 
23.3073 11.9458 -3.32384 93.8944 0.671782 -0.125406 -8.03191 0.939709 1.87999 6.63072 0.40559 2.2517 -15.3878 -1.41515 -9.14457 35.8644 -3.33789 6.6196 5.78539 -63.7658 -94.242 56.7619 11.322 30.7933 -3.68957 -36.3353 173.244 167.445 -65.7501 -106.623 57.9805 11.9059 31.3147 -0.610745 -6.95239 174.422 -14.5058 -7.59295 -174.456 -31.5696 -1.02512 -1.2572 28.5885 -13.4484 -176.952 161.807 -6.58064 -179.782 -32.3384 -0.788868 -1.32355 8.83962 9.63764 175.095 
23.3076 11.9457 -3.33057 93.8572 0.736266 -0.114136 -7.92532 0.944962 1.88741 6.66007 0.407672 2.25441 -15.7769 -1.38503 -9.18614 35.9479 -3.30448 6.65929 4.75414 -64.4598 -96.7619 56.4427 11.1712 30.6548 -3.70826 -36.4733 173.232 166.332 -65.9932 -109.53 57.7937 11.8156 31.2352 -0.579314 -6.59797 174.426 -14.4356 -7.63873 -174.444 -31.4771 -1.02287 -1.25439 28.5334 -13.4717 -176.953 161.838 -6.52347 -179.795 -32.4158 -0.788462 -1.32527 8.77902 9.45708 175.135 
23.3076 11.9456 -3.33748 93.8219 0.800048 -0.104164 -7.8107 0.975505 1.90158 6.69803 0.416472 2.24506 -16.1788 -1.36304 -9.23322 36.0253 -3.28513 6.71557 3.59866 -65.1061 -99.3988 56.1303 11.0243 30.5186 -3.72827 -36.6207 173.22 165.105 -66.1272 -112.538 57.6097 11.7268 31.157 -0.55358 -6.3073 174.429 -14.3663 -7.68263 -174.429 -31.3846 -1.02061 -1.25157 28.4771 -13.4953 -176.953 161.873 -6.46432 -179.81 -32.488 -0.78887 -1.32614 8.72423 9.28585 175.174 
23.3072 11.9455 -3.34446 93.7957 0.869505 -0.100539 -7.70552 1.05226 1.92546 6.75768 0.437186 2.20507 -16.5741 -1.36498 -9.27191 36.087 -3.30191 6.80419 2.40389 -65.7284 -102.067 55.8263 10.8822 30.3856 -3.73064 -36.6387 173.219 163.7 -66.1188 -115.72 57.4497 11.6497 31.0889 -0.53467 -6.09339 174.43 -14.3174 -7.716 -174.404 -31.3132 -1.01803 -1.24936 28.4026 -13.5148 -176.962 161.892 -6.4114 -179.833 -32.5567 -0.789103 -1.32723 8.68231 9.11644 175.208 
23.3063 11.9454 -3.35139 93.7812 0.948881 -0.109149 -7.61253 1.19834 1.96578 6.85112 0.475399 2.11129 -16.9741 -1.40376 -9.28894 36.1368 -3.37145 6.94436 1.2267 -66.3544 -104.692 55.5352 10.7467 30.2578 -3.70683 -36.4651 173.234 162.04 -65.9168 -119.154 57.3215 11.5881 31.0342 -0.523568 -5.96944 174.431 -14.2982 -7.73231 -174.361 -31.2739 -1.01488 -1.24809 28.2991 -13.5262 -176.984 161.892 -6.37233 -179.872 -32.6174 -0.789078 -1.3286 8.66501 8.93674 175.239 
23.305 11.9453 -3.35835 93.7743 1.03399 -0.125787 -7.52334 1.39672 2.01903 6.96869 0.526944 1.97969 -17.3838 -1.46806 -9.29493 36.1782 -3.4783 7.12274 0.0089639 -66.97 -107.337 55.2548 10.617 30.134 -3.66835 -36.1824 173.257 160.283 -65.5321 -122.676 57.2131 11.5363 30.9877 -0.51942 -5.92527 174.432 -14.2969 -7.73759 -174.305 -31.2537 -1.01135 -1.24736 28.1776 -13.5327 -177.015 161.883 -6.34091 -179.922 -32.6711 -0.789264 -1.32976 8.66525 8.75412 175.267 
23.3035 11.945 -3.36556 93.7724 1.11828 -0.140363 -7.43853 1.60817 2.07269 7.09074 0.582389 1.85038 -17.7739 -1.53729 -9.31177 36.2013 -3.59646 7.30618 -1.33534 -67.5336 -110.119 54.9771 10.4894 30.0107 -3.62597 -35.8683 173.282 158.693 -65.0367 -126.028 57.1164 11.4902 30.946 -0.5206 -5.93881 174.431 -14.3015 -7.74198 -174.25 -31.2374 -1.00793 -1.24676 28.0546 -13.5412 -177.045 161.866 -6.3046 -179.97 -32.7266 -0.789492 -1.33094 8.66172 8.59035 175.292 
23.302 11.9445 -3.37323 93.7724 1.19531 -0.142783 -7.35836 1.79346 2.11424 7.19743 0.632299 1.76348 -18.1152 -1.59088 -9.36133 36.1957 -3.70005 7.46146 -2.88028 -67.9944 -113.142 54.694 10.36 29.8845 -3.59026 -35.6006 173.303 157.472 -64.5254 -129.016 57.0228 11.4457 30.9057 -0.525491 -5.98798 174.43 -14.2999 -7.75563 -174.21 -31.2097 -1.00511 -1.24588 27.9467 -13.5587 -177.065 161.844 -6.25087 179.997 -32.7928 -0.789594 -1.33239 8.6331 8.4672 175.315 
23.3007 11.9437 -3.38146 93.7744 1.26581 -0.124192 -7.28464 1.94739 2.13151 7.28549 0.676154 1.73994 -18.3873 -1.62634 -9.46155 36.1407 -3.78924 7.58685 -4.64257 -68.3406 -116.43 54.4067 10.2293 29.7561 -3.56371 -35.3982 173.318 156.697 -64.0475 -131.557 56.946 11.409 30.8728 -0.537018 -6.10171 174.429 -14.2897 -7.77582 -174.194 -31.1617 -1.00296 -1.24448 27.8462 -13.5912 -177.074 161.815 -6.16766 179.992 -32.8793 -0.789454 -1.33434 8.56454 8.39923 175.338 
23.2995 11.9425 -3.39013 93.7794 1.33246 -0.0920267 -7.2164 2.08915 2.13411 7.36467 0.718318 1.75494 -18.6102 -1.65364 -9.59671 36.0476 -3.87551 7.69767 -6.54675 -68.5833 -119.894 54.1185 10.0987 29.6268 -3.54073 -35.2202 173.331 156.219 -63.5763 -133.793 56.8851 11.3799 30.8467 -0.554935 -6.28017 174.427 -14.2771 -7.79894 -174.193 -31.1031 -1.00124 -1.24282 27.7483 -13.6336 -177.077 161.778 -6.06458 -179.995 -32.9788 -0.789186 -1.33661 8.47034 8.37192 175.36 
23.298 11.9412 -3.3991 93.7867 1.39142 -0.060629 -7.14979 2.21606 2.14216 7.43454 0.756676 1.77996 -18.8146 -1.67084 -9.73825 35.9536 -3.95001 7.78627 -8.50256 -68.7031 -123.437 53.8239 9.96619 29.4941 -3.51937 -35.0547 173.343 155.869 -63.0944 -135.907 56.8103 11.3445 30.8145 -0.572856 -6.45812 174.424 -14.2627 -7.83386 -174.192 -31.0468 -0.99994 -1.24124 27.6738 -13.6761 -177.073 161.74 -5.96152 -179.985 -33.0753 -0.788966 -1.3388 8.37302 8.36341 175.38 
23.2955 11.9398 -3.40824 93.7956 1.4389 -0.044344 -7.08113 2.32547 2.17577 7.49474 0.789118 1.7865 -19.0311 -1.67607 -9.85758 35.8959 -4.00388 7.845 -10.4037 -68.6878 -126.947 53.5179 9.82947 29.3554 -3.49779 -34.8897 173.355 155.496 -62.571 -138.059 56.6919 11.2887 30.7629 -0.584377 -6.5703 174.423 -14.2473 -7.88943 -174.177 -31.0058 -0.999063 -1.24007 27.6436 -13.7092 -177.062 161.706 -5.87837 -179.999 -33.1524 -0.788972 -1.34051 8.29509 8.35181 175.395 
23.2919 11.9383 -3.41762 93.8007 1.46622 -0.0529237 -7.00412 2.42018 2.24963 7.54357 0.816071 1.76581 -19.2686 -1.66687 -9.952 35.8876 -4.03361 7.86947 -12.2395 -68.5245 -130.439 53.2007 9.68848 29.2111 -3.47357 -34.7092 173.369 155.066 -61.9931 -140.296 56.515 11.2054 30.6859 -0.586436 -6.58553 174.422 -14.2245 -7.9709 -174.139 -30.9908 -0.998607 -1.23958 27.6798 -13.7261 -177.042 161.685 -5.8219 179.951 -33.1981 -0.789261 -1.34144 8.23761 8.33325 175.406 
